<svg width="512" height="512" viewBox="0 0 512 512" fill="none" xmlns="http://www.w3.org/2000/svg">
<path d="M458.515 373.564C452.401 327.66 463.207 265.395 431.354 229.571C401.512 163.364 296.806 140.292 320.596 243.115C264.019 208.489 190.15 228.73 131.279 253.681C88.8824 282.425 49.6714 223.122 27.0004 258C14.0004 278 17.6274 334.829 16.2894 373.619C12.8964 431.965 36.6174 501.726 107.134 493.172C188.692 488.452 270.191 481.728 351.749 476.555C416.647 477.592 472.595 445.508 458.515 373.564V373.564Z" fill="#EDAA71"/>
<path d="M501 157C512 18.467 470 15 316.599 10.503C228.285 7.914 138.983 4.944 52.9663 25.617C18.7023 37.465 22.0003 193 27.0003 248C35.3623 266.803 82.8153 244.835 91.0003 251C103.174 260.17 98.3853 281.166 115 316C143.216 375.158 181 300 178 257C220.246 266.806 276.125 245.335 318 254C373.901 269.327 325 165 382 173C439 181 410.919 253.044 443 255C525 260 495.854 221.804 501 157Z" fill="#F4CFAF"/>
<path d="M474.831 14.744C458.472 4.48 438.771 4.532 420.284 3.239C304.159 -3.837 187.777 2.827 71.7281 3.227C28.5851 2.628 2.61515 43.051 1.96615 82.641C1.80715 88.013 4.50115 92.811 8.64615 95.613C8.97215 150.969 8.28115 207.235 7.28915 262.506C9.12515 325.551 -2.15685 390.174 10.5641 452.859C20.4191 518.932 96.3701 514.127 147.027 509.75C199.693 510.624 251.873 509.473 304.189 510.885C375.116 504.35 487.768 537.561 504.315 438.732C505.453 427.908 490.318 425.204 487.535 435.577C462.65 515.545 363.628 471.409 302.25 480.743C292.272 480.283 282.191 480.022 272.057 479.914C271.981 461.415 272.938 442.009 272.157 423.229C313.25 439.481 359.57 415.468 350.708 367.191C343.01 323.054 304.283 318.216 268.103 331.791C268.28 331.955 268.103 331.934 267.974 331.943C267.995 331.93 267.925 331.941 267.951 331.912C267.951 331.902 267.943 331.893 267.929 331.883C267.515 309.916 267.096 287.217 266.65 264.429C293.205 264.7 321.056 265.122 337.479 265.056C367.954 259.839 354.337 232.555 351.578 212.698C347.519 192.371 369.452 176.689 388.075 184.516C415.821 193.557 401.354 222.168 398.317 242.27C397.673 276.048 435.648 266.651 457.384 268.414C457.389 268.411 482.099 268.845 490.262 268.985C489.774 290.818 488.802 312.653 486.804 333.441C486.92 348.171 507.759 348.699 508.821 334.221C510.656 276.087 509.172 216.141 508.637 158.005C508.651 112.462 520.548 43.139 474.831 14.744V14.744ZM32.2332 82.944C31.7442 59.786 44.4601 32.156 70.0051 30.806C76.0661 30.591 94.2171 30.022 100.575 29.783C149.405 28.021 198.32 25.58 247.236 23.931C247.113 45.009 254.03 75.458 242.4 83.381C232.02 85.95 220.545 84.057 209.349 84.724C124.619 89.268 154.403 223.182 247.959 176.898C247.905 176.868 247.876 176.832 247.839 176.766C246.881 175.848 248.583 174.977 249.374 175.911C249.374 175.911 250.161 176.721 251.058 177.643C250.529 199.078 250.042 221.177 249.587 243.384C235.2 243.532 222.196 243.742 213.208 244.078C199.937 244.146 186.303 241.32 173.079 246.227C149.134 255.986 167.249 282.55 166.698 300.694C168.22 321.287 139.035 338.044 122.903 324.362C99.3012 295.554 129.945 239.193 70.2542 240.728C58.4272 241.109 47.2431 243.372 35.9801 244.045C32.9491 244.417 29.4891 243.979 26.0621 243.601C26.0251 195.491 26.1961 142.663 25.7671 95.462C29.7071 92.703 32.2732 88.119 32.2332 82.944V82.944ZM179.923 264.532C179.924 264.535 179.92 264.537 179.92 264.54C179.917 264.52 179.904 264.491 179.923 264.532ZM271.903 417.971C271.883 417.615 271.904 417.775 271.903 417.971V417.971ZM274.36 351.522C299.398 342.088 330.292 345.056 327.393 378.394C326.821 406.996 293.989 405.114 274.85 394.998C258.276 389.706 241.737 404.654 243.996 421.579C244.279 441.298 242.601 460.093 242.05 480.006C221.426 480.318 200.784 481.085 180.53 481.946C133.728 474.078 57.8242 512.659 33.9692 455.813C17.7532 395.46 28.1921 332.314 26.1121 270.685C26.1071 269.118 26.1041 267.516 26.0991 265.934C46.0361 266.177 77.3372 254.403 87.7802 263.838C100.495 286.908 86.8832 321.937 114.881 341.328C137.383 355.957 169.075 344.019 181.04 321.232C190.505 303.483 183.817 283.142 179.881 264.86C190.166 261.523 201.915 264.488 212.941 264.373C222.281 264.177 235.086 264.181 249.171 264.277C248.723 287.196 248.306 310.034 247.912 332.169C247.856 345.69 261.503 355.614 274.36 351.522V351.522ZM335.869 242.664C335.8 242.665 335.655 242.666 335.586 242.667C335.697 242.638 335.805 242.625 335.883 242.655C335.876 242.658 335.917 242.663 335.869 242.664V242.664ZM425.883 243.565C425.88 243.532 425.868 243.461 425.85 243.384C425.861 243.445 425.917 243.502 425.883 243.565ZM426.459 240.21C462.482 128.724 292.229 131.419 334.412 242.68C334.251 242.682 334.13 242.683 334.13 242.683C319.087 242.971 292.057 243.05 266.227 243.24C265.792 221.856 265.328 200.581 264.819 179.929C268.906 173.976 265.369 159.322 254.199 155.673C238.308 150.918 220.66 161.081 204.562 156.409C194.752 153.003 188.615 141.671 188.216 131.121C187.962 108.196 204.685 106.796 223.389 105.994C272.299 108.849 270.07 68.498 264.718 32.693C263.924 29.8 264.126 26.599 264.598 23.386C322.953 21.668 381.294 21.325 439.475 24.869C462.032 26.064 477.669 36.811 484.887 58.537C496.875 96.938 487.986 139.292 490.859 179.203C490.725 198.021 490.813 218.197 490.677 238.809C471.853 239.218 444.042 239.151 426.459 240.21V240.21Z" fill="#261906"/>
</svg>
